#!OML:ASF F:\VICON\USERDATA\INSTALL\rory3\rory3.ASF
:FULLY-SPECIFIED
:DEGREES
31
root 0.886969 17.8069 -14.6084 5.18796 -2.65931 -0.283619
lowerback 0.271972 -0.665769 -1.66369
upperback -3.88925 -0.832257 2.94521
thorax -4.09802 -0.302077 4.01458
lowerneck -15.2884 -4.33669 -11.0821
upperneck 26.2546 -4.73837 5.55384
head 11.4995 -2.58537 3.23828
rclavicle 3.62782e-015 2.38542e-015
rhumerus -35.1815 -8.39423 -82.2211
rradius 28.4219
rwrist 12.6315
rhand -5.23728 7.92465
rfingers 7.12502
rthumb 20.5654 -21.006
lclavicle 3.62782e-015 2.38542e-015
lhumerus -32.925 9.60758 89.6901
lradius 23.533
lwrist -14.1258
lhand -13.2521 26.5792
lfingers 7.12502
lthumb 12.8501 56.1636
rfemur -5.98448 6.64638 20.7187
rtibia 17.9349
rfoot -11.6196 -8.15274
rtoes 3.76148
lfemur -5.68308 -6.09509 -19.1773
ltibia 17.9348
lfoot -13.2104 8.5841
ltoes -2.95661
32
root 0.885495 17.8039 -14.6133 5.12655 -2.42939 -0.267261
lowerback 0.481344 -0.747189 -1.7003
upperback -3.96355 -0.941333 2.95861
thorax -4.28498 -0.350788 4.0588
lowerneck -15.1665 -4.32532 -11.0729
upperneck 26.2668 -4.73101 5.52113
head 11.4781 -2.58738 3.22702
rclavicle -2.78299e-015 -2.78299e-014
rhumerus -35.2618 -8.38937 -82.1837
rradius 28.3784
rwrist 12.684
rhand -5.27682 8.11639
rfingers 7.12502
rthumb 20.5274 -20.8184
lclavicle -2.78299e-015 -2.78299e-014
lhumerus -33.078 9.61793 89.6802
lradius 23.6041
lwrist -14.0867
lhand -14.5406 22.6013
lfingers 7.12502
lthumb 11.6078 52.2598
rfemur -5.84503 6.48706 20.7506
rtibia 17.8611
rfoot -11.6465 -8.25053
rtoes 3.25944
lfemur -5.70674 -6.13048 -19.1577
ltibia 17.9916
lfoot -13.2373 8.4019
ltoes -3.24992
33
root 0.884016 17.8014 -14.6157 5.12746 -2.4857 -0.22835
lowerback 0.516971 -0.721761 -1.77114
upperback -3.99529 -0.909368 2.94969
thorax -4.34038 -0.331055 4.08968
lowerneck -15.0603 -4.3261 -11.0414
upperneck 26.17 -4.74486 5.50134
head 11.4196 -2.59285 3.2116
rclavicle 3.72721e-015 -2.14687e-014
rhumerus -35.3459 -8.33613 -82.1749
rradius 28.4286
rwrist 12.6239
rhand -5.24002 8.28879
rfingers 7.12502
rthumb 20.5628 -20.6422
lclavicle 3.72721e-015 -2.14687e-014
lhumerus -33.1337 9.5963 89.6785
lradius 23.5878
lwrist -14.0971
lhand -13.0415 26.8223
lfingers 7.12502
lthumb 13.0532 56.3939
rfemur -5.82538 6.4774 20.712
rtibia 17.7995
rfoot -11.561 -8.25625
rtoes 2.55466
lfemur -5.7497 -6.09568 -19.2001
ltibia 18.0445
lfoot -13.2525 8.41653
ltoes -2.86059
34
root 0.884628 17.8053 -14.6165 5.20809 -2.62423 -0.322724
lowerback 0.340202 -0.677086 -1.66139
upperback -3.92235 -0.846521 2.96114
thorax -4.17001 -0.307322 4.03229
lowerneck -15.1765 -4.33423 -11.065
upperneck 26.1259 -4.75824 5.5863
head 11.4298 -2.58822 3.24347
rclavicle 3.35449e-015 -3.97569e-015
rhumerus -35.2094 -8.33985 -82.2162
rradius 28.436
rwrist 12.5747
rhand -5.16147 8.11562
rfingers 7.12502
rthumb 20.6383 -20.8071
lclavicle 3.35449e-015 -3.97569e-015
lhumerus -32.9743 9.52926 89.7085
lradius 23.5951
lwrist -14.0293
lhand -12.286 28.6661
lfingers 7.12502
lthumb 13.7813 58.1897
rfemur -5.93098 6.53232 20.7795
rtibia 17.7794
rfoot -11.531 -8.14727
rtoes 2.43277
lfemur -5.8079 -6.02804 -19.1108
ltibia 18.0704
lfoot -13.3322 8.48247
ltoes -2.37006
35
root 0.885349 17.8075 -14.6196 5.23309 -2.66974 -0.316472
lowerback 0.310303 -0.646536 -1.66828
upperback -3.88667 -0.806187 2.96214
thorax -4.11905 -0.288234 4.03459
lowerneck -15.2092 -4.3455 -11.0703
upperneck 26.0873 -4.76444 5.57711
head 11.4222 -2.59131 3.23894
rclavicle -1.31695e-015 -1.82882e-014
rhumerus -35.1604 -8.32556 -82.2094
rradius 28.454
rwrist 12.5068
rhand -5.13512 7.93664
rfingers 7.12502
rthumb 20.6636 -20.9834
lclavicle -1.31695e-015 -1.82882e-014
lhumerus -32.8624 9.42858 89.7883
lradius 23.6015
lwrist -13.9604
lhand -12.2142 28.6406
lfingers 7.12502
lthumb 13.8505 58.1594
rfemur -6.00741 6.6132 20.7646
rtibia 17.8257
rfoot -11.4987 -8.19246
rtoes 2.50807
lfemur -5.8276 -6.05425 -19.1215
ltibia 18.0294
lfoot -13.3738 8.58079
ltoes -2.77611
36
root 0.885494 17.8045 -14.621 5.24556 -2.70284 -0.32315
lowerback 0.354419 -0.640985 -1.70691
upperback -3.94185 -0.797937 2.99717
thorax -4.20175 -0.27995 4.09456
lowerneck -15.0251 -4.34077 -11.0989
upperneck 26.0396 -4.75864 5.53442
head 11.3669 -2.59882 3.2297
rclavicle 2.75814e-015 1.98785e-014
rhumerus -35.1991 -8.3131 -82.1423
rradius 28.3634
rwrist 12.5477
rhand -5.0181 7.69269
rfingers 7.12502
rthumb 20.776 -21.2151
lclavicle 2.75814e-015 1.98785e-014
lhumerus -32.9641 9.62866 89.7571
lradius 23.6131
lwrist -14.0869
lhand -12.4085 28.3088
lfingers 7.12502
lthumb 13.6634 57.8404
rfemur -6.02665 6.61788 20.7639
rtibia 17.8364
rfoot -11.4502 -8.13563
rtoes 2.65766
lfemur -5.90699 -6.03272 -19.118
ltibia 18.0295
lfoot -13.3077 8.69361
ltoes -3.79373
